<svg xmlns="http://www.w3.org/2000/svg" width="165" height="165" fill="none"><rect width="165" height="165" fill="url(#a)" rx="35.61"/><g filter="url(#b)"><path fill="url(#c)" d="M99.586 33.161 92.95 70.905 73.458 86.836l9.432-53.675H63.996l-17.475 99h18.894l4.852-27.389L89.83 88.719l-7.72 43.442h18.904l17.465-99H99.586Z"/></g><path fill="#052218" d="M99.851 33.161h-.265l-6.624 37.675.31-.253 6.58-37.422Zm-35.589 0h-.266l-17.475 99h18.894l.057-.322H46.843l17.419-98.678Zm6.316 71.356.012-.067 19.562-16.053-7.72 43.442h18.639l-.057.322H82.11l7.72-43.442-19.252 15.798Z"/><path fill="#F5FFD6" d="M64.016 33.035h-.264l-17.408 98.619.32-.321 17.352-98.298Zm35.454 0h-.264l-6.61 37.599.322-.264 6.552-37.335Zm-29.15 71.017-.012.068 19.179-15.739-7.689 43.269.321-.321 7.689-43.269-19.488 15.992Z"/><defs><linearGradient id="a" x1="125.192" x2="96.138" y1="-3.306" y2="189.689" gradientUnits="userSpaceOnUse"><stop stop-color="#DF5"/><stop offset=".865" stop-color="#C7F542"/><stop offset=".994" stop-color="#D3FB52"/></linearGradient><linearGradient id="c" x1="115.447" x2="39.434" y1="40.926" y2="101.237" gradientUnits="userSpaceOnUse"><stop stop-color="#052326"/><stop offset="1" stop-color="#073D42"/></linearGradient><filter id="b" width="72.119" height="99.16" x="46.361" y="33.161" color-interpolation-filters="sRGB" filterUnits="userSpaceOnUse"><feFlood flood-opacity="0" result="BackgroundImageFix"/><feBlend in="SourceGraphic" in2="BackgroundImageFix" result="shape"/><feColorMatrix in="SourceAlpha" result="hardAlpha" values="0 0 0 0 0 0 0 0 0 0 0 0 0 0 0 0 0 0 127 0"/><feOffset dx="-.482" dy=".321"/><feGaussianBlur stdDeviation=".08"/><feComposite in2="hardAlpha" k2="-1" k3="1" operator="arithmetic"/><feColorMatrix values="0 0 0 0 0.00802083 0 0 0 0 0.0803289 0 0 0 0 0.0875 0 0 0 1 0"/><feBlend in2="shape" result="effect1_innerShadow_159_1360"/></filter></defs></svg>
